<mxfile host="Electron" agent="Mozilla/5.0 (Macintosh; Intel Mac OS X 10_15_7) AppleWebKit/537.36 (KHTML, like Gecko) draw.io/28.1.2 Chrome/138.0.7204.243 Electron/37.4.0 Safari/537.36" version="28.1.2">
  <diagram name="Page-1" id="By8liHJEc-wVqUO_82KP">
    <mxGraphModel dx="1304" dy="1016" grid="1" gridSize="10" guides="1" tooltips="1" connect="1" arrows="1" fold="1" page="1" pageScale="1" pageWidth="1100" pageHeight="850" math="0" shadow="0">
      <root>
        <mxCell id="0" />
        <mxCell id="1" parent="0" />
        <mxCell id="QWPdR127JlsLXlF1BFBa-119" value="" style="container=1;collapsible=0;expand=0;recursiveResize=0;html=1;whiteSpace=wrap;strokeColor=#b46504;fillColor=#fad7ac;strokeWidth=1;" vertex="1" parent="1">
          <mxGeometry x="500" y="580" width="460" height="250" as="geometry" />
        </mxCell>
        <mxCell id="QWPdR127JlsLXlF1BFBa-120" value="AWS Global NetworkÂ " style="shape=rect;fillColor=none;aspect=fixed;resizable=0;labelPosition=right;verticalLabelPosition=middle;align=left;verticalAlign=middle;strokeColor=none;part=1;spacingLeft=5;fontSize=14;" vertex="1" parent="QWPdR127JlsLXlF1BFBa-119">
          <mxGeometry width="48" height="48" relative="1" as="geometry" />
        </mxCell>
        <mxCell id="QWPdR127JlsLXlF1BFBa-121" value="" style="fillColor=#1192E8;shape=mxgraph.ibm_cloud.ibm-cloud--subnets;strokeColor=none;dashed=0;outlineConnect=0;html=1;labelPosition=center;verticalLabelPosition=bottom;verticalAlign=top;part=1;movable=0;resizable=0;rotatable=0;" vertex="1" parent="QWPdR127JlsLXlF1BFBa-120">
          <mxGeometry width="24" height="24" relative="1" as="geometry">
            <mxPoint x="12" y="12" as="offset" />
          </mxGeometry>
        </mxCell>
        <mxCell id="QWPdR127JlsLXlF1BFBa-122" value="" style="shape=rect;fillColor=#1192E8;aspect=fixed;resizable=0;labelPosition=right;verticalLabelPosition=middle;align=left;verticalAlign=middle;strokeColor=none;part=1;spacingLeft=5;fontSize=14;" vertex="1" parent="QWPdR127JlsLXlF1BFBa-119">
          <mxGeometry width="4" height="48" relative="1" as="geometry" />
        </mxCell>
        <mxCell id="QWPdR127JlsLXlF1BFBa-76" value="Geographic Governance Region B" style="shape=mxgraph.ibm.box;prType=region;fontStyle=0;verticalAlign=top;align=left;spacingLeft=32;spacingTop=4;fillColor=none;rounded=0;whiteSpace=wrap;html=1;strokeColor=#919191;strokeWidth=2;dashed=0;container=0;spacing=-4;collapsible=0;expand=0;recursiveResize=0;" vertex="1" parent="1">
          <mxGeometry x="640" y="10" width="420" height="260" as="geometry" />
        </mxCell>
        <mxCell id="QWPdR127JlsLXlF1BFBa-93" value="Geographic Governance Region C" style="shape=mxgraph.ibm.box;prType=region;fontStyle=0;verticalAlign=top;align=left;spacingLeft=32;spacingTop=4;fillColor=none;rounded=0;whiteSpace=wrap;html=1;strokeColor=#919191;strokeWidth=2;dashed=0;container=0;spacing=-4;collapsible=0;expand=0;recursiveResize=0;" vertex="1" parent="1">
          <mxGeometry x="640" y="290" width="420" height="260" as="geometry" />
        </mxCell>
        <mxCell id="QWPdR127JlsLXlF1BFBa-47" style="edgeStyle=orthogonalEdgeStyle;rounded=0;orthogonalLoop=1;jettySize=auto;html=1;startArrow=classic;startFill=1;" edge="1" parent="1" source="QWPdR127JlsLXlF1BFBa-12" target="QWPdR127JlsLXlF1BFBa-29">
          <mxGeometry relative="1" as="geometry" />
        </mxCell>
        <mxCell id="QWPdR127JlsLXlF1BFBa-52" style="edgeStyle=orthogonalEdgeStyle;rounded=0;orthogonalLoop=1;jettySize=auto;html=1;" edge="1" parent="1" source="QWPdR127JlsLXlF1BFBa-12" target="QWPdR127JlsLXlF1BFBa-48">
          <mxGeometry relative="1" as="geometry" />
        </mxCell>
        <mxCell id="QWPdR127JlsLXlF1BFBa-91" style="edgeStyle=orthogonalEdgeStyle;rounded=0;orthogonalLoop=1;jettySize=auto;html=1;fillColor=#fa6800;strokeColor=#C73500;strokeWidth=4;startArrow=classic;startFill=1;" edge="1" parent="1" source="QWPdR127JlsLXlF1BFBa-12" target="QWPdR127JlsLXlF1BFBa-53">
          <mxGeometry relative="1" as="geometry">
            <Array as="points">
              <mxPoint x="190" y="530" />
              <mxPoint x="620" y="530" />
              <mxPoint x="620" y="140" />
            </Array>
          </mxGeometry>
        </mxCell>
        <mxCell id="QWPdR127JlsLXlF1BFBa-12" value="Amazon Region A" style="points=[[0,0],[0.25,0],[0.5,0],[0.75,0],[1,0],[1,0.25],[1,0.5],[1,0.75],[1,1],[0.75,1],[0.5,1],[0.25,1],[0,1],[0,0.75],[0,0.5],[0,0.25]];outlineConnect=0;html=1;whiteSpace=wrap;fontSize=12;fontStyle=0;container=1;pointerEvents=0;collapsible=0;recursiveResize=0;shape=mxgraph.aws4.group;grIcon=mxgraph.aws4.group_region;strokeColor=#C73500;fillColor=none;verticalAlign=top;align=left;spacingLeft=30;fontColor=#000000;dashed=1;" vertex="1" parent="1">
          <mxGeometry x="50" y="40" width="280" height="400" as="geometry" />
        </mxCell>
        <mxCell id="QWPdR127JlsLXlF1BFBa-15" value="Availability zone A" style="sketch=0;outlineConnect=0;gradientColor=none;html=1;whiteSpace=wrap;fontSize=12;fontStyle=0;shape=mxgraph.aws4.group;grIcon=mxgraph.aws4.group_availability_zone;strokeColor=#545B64;fillColor=none;verticalAlign=top;align=left;spacingLeft=30;fontColor=#545B64;dashed=1;" vertex="1" parent="QWPdR127JlsLXlF1BFBa-12">
          <mxGeometry x="40" y="40" width="200" height="100" as="geometry" />
        </mxCell>
        <mxCell id="QWPdR127JlsLXlF1BFBa-19" style="edgeStyle=orthogonalEdgeStyle;rounded=0;orthogonalLoop=1;jettySize=auto;html=1;endArrow=none;endFill=0;dashed=1;dashPattern=1 4;strokeWidth=4;" edge="1" parent="QWPdR127JlsLXlF1BFBa-12" source="QWPdR127JlsLXlF1BFBa-17" target="QWPdR127JlsLXlF1BFBa-18">
          <mxGeometry relative="1" as="geometry" />
        </mxCell>
        <mxCell id="QWPdR127JlsLXlF1BFBa-17" value="Data Centre 1" style="verticalLabelPosition=bottom;html=1;verticalAlign=top;strokeWidth=1;align=center;outlineConnect=0;dashed=0;outlineConnect=0;shape=mxgraph.aws3d.dataCenter;strokeColor=#5E5E5E;aspect=fixed;strokeColor2=#292929;" vertex="1" parent="QWPdR127JlsLXlF1BFBa-12">
          <mxGeometry x="80" y="75" width="25.98" height="30" as="geometry" />
        </mxCell>
        <mxCell id="QWPdR127JlsLXlF1BFBa-18" value="" style="verticalLabelPosition=bottom;html=1;verticalAlign=top;strokeWidth=1;align=center;outlineConnect=0;dashed=0;outlineConnect=0;shape=mxgraph.aws3d.dataCenter;strokeColor=#5E5E5E;aspect=fixed;strokeColor2=#292929;" vertex="1" parent="QWPdR127JlsLXlF1BFBa-12">
          <mxGeometry x="170" y="75" width="25.98" height="30" as="geometry" />
        </mxCell>
        <mxCell id="QWPdR127JlsLXlF1BFBa-20" value="Availability zone B" style="sketch=0;outlineConnect=0;gradientColor=none;html=1;whiteSpace=wrap;fontSize=12;fontStyle=0;shape=mxgraph.aws4.group;grIcon=mxgraph.aws4.group_availability_zone;strokeColor=#545B64;fillColor=none;verticalAlign=top;align=left;spacingLeft=30;fontColor=#545B64;dashed=1;" vertex="1" parent="QWPdR127JlsLXlF1BFBa-12">
          <mxGeometry x="40" y="160" width="200" height="100" as="geometry" />
        </mxCell>
        <mxCell id="QWPdR127JlsLXlF1BFBa-21" style="edgeStyle=orthogonalEdgeStyle;rounded=0;orthogonalLoop=1;jettySize=auto;html=1;endArrow=none;endFill=0;dashed=1;dashPattern=1 4;strokeWidth=4;" edge="1" parent="QWPdR127JlsLXlF1BFBa-12" source="QWPdR127JlsLXlF1BFBa-22" target="QWPdR127JlsLXlF1BFBa-23">
          <mxGeometry relative="1" as="geometry" />
        </mxCell>
        <mxCell id="QWPdR127JlsLXlF1BFBa-22" value="Data Centre 1" style="verticalLabelPosition=bottom;html=1;verticalAlign=top;strokeWidth=1;align=center;outlineConnect=0;dashed=0;outlineConnect=0;shape=mxgraph.aws3d.dataCenter;strokeColor=#5E5E5E;aspect=fixed;strokeColor2=#292929;" vertex="1" parent="QWPdR127JlsLXlF1BFBa-12">
          <mxGeometry x="80" y="195" width="25.98" height="30" as="geometry" />
        </mxCell>
        <mxCell id="QWPdR127JlsLXlF1BFBa-23" value="" style="verticalLabelPosition=bottom;html=1;verticalAlign=top;strokeWidth=1;align=center;outlineConnect=0;dashed=0;outlineConnect=0;shape=mxgraph.aws3d.dataCenter;strokeColor=#5E5E5E;aspect=fixed;strokeColor2=#292929;" vertex="1" parent="QWPdR127JlsLXlF1BFBa-12">
          <mxGeometry x="170" y="195" width="25.98" height="30" as="geometry" />
        </mxCell>
        <mxCell id="QWPdR127JlsLXlF1BFBa-24" value="Availability zone C" style="sketch=0;outlineConnect=0;gradientColor=none;html=1;whiteSpace=wrap;fontSize=12;fontStyle=0;shape=mxgraph.aws4.group;grIcon=mxgraph.aws4.group_availability_zone;strokeColor=#545B64;fillColor=none;verticalAlign=top;align=left;spacingLeft=30;fontColor=#545B64;dashed=1;" vertex="1" parent="QWPdR127JlsLXlF1BFBa-12">
          <mxGeometry x="40" y="280" width="200" height="100" as="geometry" />
        </mxCell>
        <mxCell id="QWPdR127JlsLXlF1BFBa-25" style="edgeStyle=orthogonalEdgeStyle;rounded=0;orthogonalLoop=1;jettySize=auto;html=1;endArrow=none;endFill=0;dashed=1;dashPattern=1 4;strokeWidth=4;" edge="1" parent="QWPdR127JlsLXlF1BFBa-12" source="QWPdR127JlsLXlF1BFBa-26" target="QWPdR127JlsLXlF1BFBa-27">
          <mxGeometry relative="1" as="geometry" />
        </mxCell>
        <mxCell id="QWPdR127JlsLXlF1BFBa-26" value="Data Centre 1" style="verticalLabelPosition=bottom;html=1;verticalAlign=top;strokeWidth=1;align=center;outlineConnect=0;dashed=0;outlineConnect=0;shape=mxgraph.aws3d.dataCenter;strokeColor=#5E5E5E;aspect=fixed;strokeColor2=#292929;" vertex="1" parent="QWPdR127JlsLXlF1BFBa-12">
          <mxGeometry x="80" y="315" width="25.98" height="30" as="geometry" />
        </mxCell>
        <mxCell id="QWPdR127JlsLXlF1BFBa-27" value="" style="verticalLabelPosition=bottom;html=1;verticalAlign=top;strokeWidth=1;align=center;outlineConnect=0;dashed=0;outlineConnect=0;shape=mxgraph.aws3d.dataCenter;strokeColor=#5E5E5E;aspect=fixed;strokeColor2=#292929;" vertex="1" parent="QWPdR127JlsLXlF1BFBa-12">
          <mxGeometry x="170" y="315" width="25.98" height="30" as="geometry" />
        </mxCell>
        <mxCell id="QWPdR127JlsLXlF1BFBa-29" value="Third Party Provider A&lt;div&gt;(e.g. Internet Providers)&lt;/div&gt;" style="sketch=0;outlineConnect=0;gradientColor=none;html=1;whiteSpace=wrap;fontSize=12;fontStyle=0;shape=mxgraph.aws4.group;grIcon=mxgraph.aws4.group_region;strokeColor=#B6BABF;fillColor=none;verticalAlign=top;align=left;spacingLeft=30;fontColor=#B6BABF;dashed=1;" vertex="1" parent="1">
          <mxGeometry x="370" y="40" width="200" height="220" as="geometry" />
        </mxCell>
        <mxCell id="QWPdR127JlsLXlF1BFBa-30" style="edgeStyle=orthogonalEdgeStyle;rounded=0;orthogonalLoop=1;jettySize=auto;html=1;endArrow=none;endFill=0;dashed=1;dashPattern=1 4;strokeWidth=4;" edge="1" parent="1" source="QWPdR127JlsLXlF1BFBa-31" target="QWPdR127JlsLXlF1BFBa-32">
          <mxGeometry relative="1" as="geometry" />
        </mxCell>
        <mxCell id="QWPdR127JlsLXlF1BFBa-31" value="Data Centre 1" style="verticalLabelPosition=bottom;html=1;verticalAlign=top;strokeWidth=1;align=center;outlineConnect=0;dashed=0;outlineConnect=0;shape=mxgraph.aws3d.dataCenter;strokeColor=#5E5E5E;aspect=fixed;strokeColor2=#292929;" vertex="1" parent="1">
          <mxGeometry x="404.02" y="90" width="25.98" height="30" as="geometry" />
        </mxCell>
        <mxCell id="QWPdR127JlsLXlF1BFBa-32" value="" style="verticalLabelPosition=bottom;html=1;verticalAlign=top;strokeWidth=1;align=center;outlineConnect=0;dashed=0;outlineConnect=0;shape=mxgraph.aws3d.dataCenter;strokeColor=#5E5E5E;aspect=fixed;strokeColor2=#292929;" vertex="1" parent="1">
          <mxGeometry x="524.02" y="90" width="25.98" height="30" as="geometry" />
        </mxCell>
        <mxCell id="QWPdR127JlsLXlF1BFBa-43" value="" style="shape=callout;whiteSpace=wrap;html=1;perimeter=calloutPerimeter;direction=west;size=10;position=0.64;position2=0.72;" vertex="1" parent="1">
          <mxGeometry x="390" y="141" width="160" height="109" as="geometry" />
        </mxCell>
        <mxCell id="QWPdR127JlsLXlF1BFBa-45" style="edgeStyle=orthogonalEdgeStyle;rounded=0;orthogonalLoop=1;jettySize=auto;html=1;startArrow=classic;startFill=1;" edge="1" parent="1" source="QWPdR127JlsLXlF1BFBa-40" target="QWPdR127JlsLXlF1BFBa-42">
          <mxGeometry relative="1" as="geometry" />
        </mxCell>
        <mxCell id="QWPdR127JlsLXlF1BFBa-46" value="Direct&lt;div&gt;Connect&lt;/div&gt;" style="edgeLabel;html=1;align=center;verticalAlign=middle;resizable=0;points=[];" vertex="1" connectable="0" parent="QWPdR127JlsLXlF1BFBa-45">
          <mxGeometry x="-0.0881" y="1" relative="1" as="geometry">
            <mxPoint x="3" y="-14" as="offset" />
          </mxGeometry>
        </mxCell>
        <mxCell id="QWPdR127JlsLXlF1BFBa-40" value="AWS Rack&lt;div&gt;(PoP)&lt;/div&gt;" style="image;aspect=fixed;perimeter=ellipsePerimeter;html=1;align=center;fontSize=12;verticalAlign=top;fontColor=#364149;shadow=0;dashed=0;image=img/lib/cumulus/rack_voyager.svg;" vertex="1" parent="1">
          <mxGeometry x="410" y="175" width="25.26" height="30" as="geometry" />
        </mxCell>
        <mxCell id="QWPdR127JlsLXlF1BFBa-42" value="Third Party&lt;div&gt;Racks&lt;/div&gt;" style="image;aspect=fixed;perimeter=ellipsePerimeter;html=1;align=center;fontSize=12;verticalAlign=top;fontColor=#364149;shadow=0;dashed=0;image=img/lib/cumulus/rack_out_of_band.svg;" vertex="1" parent="1">
          <mxGeometry x="504.74" y="175" width="25.26" height="30" as="geometry" />
        </mxCell>
        <mxCell id="QWPdR127JlsLXlF1BFBa-48" value="Third Party Provider B&lt;div&gt;(e.g. Internet Providers)&lt;/div&gt;" style="sketch=0;outlineConnect=0;gradientColor=none;html=1;whiteSpace=wrap;fontSize=12;fontStyle=0;shape=mxgraph.aws4.group;grIcon=mxgraph.aws4.group_region;strokeColor=#B6BABF;fillColor=none;verticalAlign=top;align=left;spacingLeft=30;fontColor=#B6BABF;dashed=1;" vertex="1" parent="1">
          <mxGeometry x="370" y="270" width="200" height="110" as="geometry" />
        </mxCell>
        <mxCell id="QWPdR127JlsLXlF1BFBa-49" style="edgeStyle=orthogonalEdgeStyle;rounded=0;orthogonalLoop=1;jettySize=auto;html=1;endArrow=none;endFill=0;dashed=1;dashPattern=1 4;strokeWidth=4;" edge="1" parent="1" source="QWPdR127JlsLXlF1BFBa-50" target="QWPdR127JlsLXlF1BFBa-51">
          <mxGeometry relative="1" as="geometry" />
        </mxCell>
        <mxCell id="QWPdR127JlsLXlF1BFBa-50" value="Data Centre 1" style="verticalLabelPosition=bottom;html=1;verticalAlign=top;strokeWidth=1;align=center;outlineConnect=0;dashed=0;outlineConnect=0;shape=mxgraph.aws3d.dataCenter;strokeColor=#5E5E5E;aspect=fixed;strokeColor2=#292929;" vertex="1" parent="1">
          <mxGeometry x="404.02" y="320" width="25.98" height="30" as="geometry" />
        </mxCell>
        <mxCell id="QWPdR127JlsLXlF1BFBa-51" value="" style="verticalLabelPosition=bottom;html=1;verticalAlign=top;strokeWidth=1;align=center;outlineConnect=0;dashed=0;outlineConnect=0;shape=mxgraph.aws3d.dataCenter;strokeColor=#5E5E5E;aspect=fixed;strokeColor2=#292929;" vertex="1" parent="1">
          <mxGeometry x="524.02" y="320" width="25.98" height="30" as="geometry" />
        </mxCell>
        <mxCell id="QWPdR127JlsLXlF1BFBa-73" style="edgeStyle=orthogonalEdgeStyle;rounded=0;orthogonalLoop=1;jettySize=auto;html=1;" edge="1" parent="1" source="QWPdR127JlsLXlF1BFBa-53" target="QWPdR127JlsLXlF1BFBa-70">
          <mxGeometry relative="1" as="geometry" />
        </mxCell>
        <mxCell id="QWPdR127JlsLXlF1BFBa-74" style="edgeStyle=orthogonalEdgeStyle;rounded=0;orthogonalLoop=1;jettySize=auto;html=1;" edge="1" parent="1" source="QWPdR127JlsLXlF1BFBa-53" target="QWPdR127JlsLXlF1BFBa-71">
          <mxGeometry relative="1" as="geometry" />
        </mxCell>
        <mxCell id="QWPdR127JlsLXlF1BFBa-75" style="edgeStyle=orthogonalEdgeStyle;rounded=0;orthogonalLoop=1;jettySize=auto;html=1;startArrow=classic;startFill=1;" edge="1" parent="1" source="QWPdR127JlsLXlF1BFBa-53" target="QWPdR127JlsLXlF1BFBa-72">
          <mxGeometry relative="1" as="geometry" />
        </mxCell>
        <mxCell id="QWPdR127JlsLXlF1BFBa-53" value="Amazon Region B" style="points=[[0,0],[0.25,0],[0.5,0],[0.75,0],[1,0],[1,0.25],[1,0.5],[1,0.75],[1,1],[0.75,1],[0.5,1],[0.25,1],[0,1],[0,0.75],[0,0.5],[0,0.25]];outlineConnect=0;html=1;whiteSpace=wrap;fontSize=12;fontStyle=0;container=1;pointerEvents=0;collapsible=0;recursiveResize=0;shape=mxgraph.aws4.group;grIcon=mxgraph.aws4.group_region;strokeColor=#C73500;fillColor=none;verticalAlign=top;align=left;spacingLeft=30;fontColor=#000000;dashed=1;" vertex="1" parent="1">
          <mxGeometry x="660" y="40" width="190" height="200" as="geometry" />
        </mxCell>
        <mxCell id="QWPdR127JlsLXlF1BFBa-54" value="Availability zone A" style="sketch=0;outlineConnect=0;gradientColor=none;html=1;whiteSpace=wrap;fontSize=12;fontStyle=0;shape=mxgraph.aws4.group;grIcon=mxgraph.aws4.group_availability_zone;strokeColor=#545B64;fillColor=none;verticalAlign=top;align=left;spacingLeft=30;fontColor=#545B64;dashed=1;" vertex="1" parent="QWPdR127JlsLXlF1BFBa-53">
          <mxGeometry x="20" y="40" width="150" height="40" as="geometry" />
        </mxCell>
        <mxCell id="QWPdR127JlsLXlF1BFBa-66" value="Availability zone B" style="sketch=0;outlineConnect=0;gradientColor=none;html=1;whiteSpace=wrap;fontSize=12;fontStyle=0;shape=mxgraph.aws4.group;grIcon=mxgraph.aws4.group_availability_zone;strokeColor=#545B64;fillColor=none;verticalAlign=top;align=left;spacingLeft=30;fontColor=#545B64;dashed=1;" vertex="1" parent="QWPdR127JlsLXlF1BFBa-53">
          <mxGeometry x="20" y="90" width="150" height="40" as="geometry" />
        </mxCell>
        <mxCell id="QWPdR127JlsLXlF1BFBa-67" value="Availability zone C" style="sketch=0;outlineConnect=0;gradientColor=none;html=1;whiteSpace=wrap;fontSize=12;fontStyle=0;shape=mxgraph.aws4.group;grIcon=mxgraph.aws4.group_availability_zone;strokeColor=#545B64;fillColor=none;verticalAlign=top;align=left;spacingLeft=30;fontColor=#545B64;dashed=1;" vertex="1" parent="QWPdR127JlsLXlF1BFBa-53">
          <mxGeometry x="20" y="140" width="150" height="40" as="geometry" />
        </mxCell>
        <mxCell id="QWPdR127JlsLXlF1BFBa-84" value="Availability zone A" style="sketch=0;outlineConnect=0;gradientColor=none;html=1;whiteSpace=wrap;fontSize=12;fontStyle=0;shape=mxgraph.aws4.group;grIcon=mxgraph.aws4.group_availability_zone;strokeColor=#545B64;fillColor=none;verticalAlign=top;align=left;spacingLeft=30;fontColor=#545B64;dashed=1;" vertex="1" parent="QWPdR127JlsLXlF1BFBa-53">
          <mxGeometry x="20" y="320" width="150" height="40" as="geometry" />
        </mxCell>
        <mxCell id="QWPdR127JlsLXlF1BFBa-85" value="Availability zone B" style="sketch=0;outlineConnect=0;gradientColor=none;html=1;whiteSpace=wrap;fontSize=12;fontStyle=0;shape=mxgraph.aws4.group;grIcon=mxgraph.aws4.group_availability_zone;strokeColor=#545B64;fillColor=none;verticalAlign=top;align=left;spacingLeft=30;fontColor=#545B64;dashed=1;" vertex="1" parent="QWPdR127JlsLXlF1BFBa-53">
          <mxGeometry x="20" y="370" width="150" height="40" as="geometry" />
        </mxCell>
        <mxCell id="QWPdR127JlsLXlF1BFBa-86" value="Availability zone C" style="sketch=0;outlineConnect=0;gradientColor=none;html=1;whiteSpace=wrap;fontSize=12;fontStyle=0;shape=mxgraph.aws4.group;grIcon=mxgraph.aws4.group_availability_zone;strokeColor=#545B64;fillColor=none;verticalAlign=top;align=left;spacingLeft=30;fontColor=#545B64;dashed=1;" vertex="1" parent="QWPdR127JlsLXlF1BFBa-53">
          <mxGeometry x="20" y="420" width="150" height="40" as="geometry" />
        </mxCell>
        <mxCell id="QWPdR127JlsLXlF1BFBa-70" value="Third Party Provider A" style="sketch=0;outlineConnect=0;gradientColor=none;html=1;whiteSpace=wrap;fontSize=12;fontStyle=0;shape=mxgraph.aws4.group;grIcon=mxgraph.aws4.group_region;strokeColor=#B6BABF;fillColor=none;verticalAlign=top;align=left;spacingLeft=30;fontColor=#B6BABF;dashed=1;" vertex="1" parent="1">
          <mxGeometry x="890" y="40" width="160" height="40" as="geometry" />
        </mxCell>
        <mxCell id="QWPdR127JlsLXlF1BFBa-71" value="Third Party Provider B" style="sketch=0;outlineConnect=0;gradientColor=none;html=1;whiteSpace=wrap;fontSize=12;fontStyle=0;shape=mxgraph.aws4.group;grIcon=mxgraph.aws4.group_region;strokeColor=#B6BABF;fillColor=none;verticalAlign=top;align=left;spacingLeft=30;fontColor=#B6BABF;dashed=1;" vertex="1" parent="1">
          <mxGeometry x="890" y="90" width="160" height="40" as="geometry" />
        </mxCell>
        <mxCell id="QWPdR127JlsLXlF1BFBa-72" value="Third Party Provider C" style="sketch=0;outlineConnect=0;gradientColor=none;html=1;whiteSpace=wrap;fontSize=12;fontStyle=0;shape=mxgraph.aws4.group;grIcon=mxgraph.aws4.group_region;strokeColor=#B6BABF;fillColor=none;verticalAlign=top;align=left;spacingLeft=30;fontColor=#B6BABF;dashed=1;" vertex="1" parent="1">
          <mxGeometry x="890" y="140" width="160" height="40" as="geometry" />
        </mxCell>
        <mxCell id="QWPdR127JlsLXlF1BFBa-80" style="edgeStyle=orthogonalEdgeStyle;rounded=0;orthogonalLoop=1;jettySize=auto;html=1;" edge="1" parent="1" source="QWPdR127JlsLXlF1BFBa-83" target="QWPdR127JlsLXlF1BFBa-87">
          <mxGeometry relative="1" as="geometry" />
        </mxCell>
        <mxCell id="QWPdR127JlsLXlF1BFBa-81" style="edgeStyle=orthogonalEdgeStyle;rounded=0;orthogonalLoop=1;jettySize=auto;html=1;" edge="1" parent="1" source="QWPdR127JlsLXlF1BFBa-83" target="QWPdR127JlsLXlF1BFBa-88">
          <mxGeometry relative="1" as="geometry" />
        </mxCell>
        <mxCell id="QWPdR127JlsLXlF1BFBa-82" style="edgeStyle=orthogonalEdgeStyle;rounded=0;orthogonalLoop=1;jettySize=auto;html=1;startArrow=classic;startFill=1;" edge="1" parent="1" source="QWPdR127JlsLXlF1BFBa-83" target="QWPdR127JlsLXlF1BFBa-89">
          <mxGeometry relative="1" as="geometry" />
        </mxCell>
        <mxCell id="QWPdR127JlsLXlF1BFBa-83" value="Amazon Region C" style="points=[[0,0],[0.25,0],[0.5,0],[0.75,0],[1,0],[1,0.25],[1,0.5],[1,0.75],[1,1],[0.75,1],[0.5,1],[0.25,1],[0,1],[0,0.75],[0,0.5],[0,0.25]];outlineConnect=0;html=1;whiteSpace=wrap;fontSize=12;fontStyle=0;container=1;pointerEvents=0;collapsible=0;recursiveResize=0;shape=mxgraph.aws4.group;grIcon=mxgraph.aws4.group_region;strokeColor=#C73500;fillColor=none;verticalAlign=top;align=left;spacingLeft=30;fontColor=#000000;dashed=1;" vertex="1" parent="1">
          <mxGeometry x="660" y="320" width="190" height="200" as="geometry" />
        </mxCell>
        <mxCell id="QWPdR127JlsLXlF1BFBa-87" value="Third Party Provider A" style="sketch=0;outlineConnect=0;gradientColor=none;html=1;whiteSpace=wrap;fontSize=12;fontStyle=0;shape=mxgraph.aws4.group;grIcon=mxgraph.aws4.group_region;strokeColor=#B6BABF;fillColor=none;verticalAlign=top;align=left;spacingLeft=30;fontColor=#B6BABF;dashed=1;" vertex="1" parent="1">
          <mxGeometry x="890" y="320" width="160" height="40" as="geometry" />
        </mxCell>
        <mxCell id="QWPdR127JlsLXlF1BFBa-88" value="Third Party Provider B" style="sketch=0;outlineConnect=0;gradientColor=none;html=1;whiteSpace=wrap;fontSize=12;fontStyle=0;shape=mxgraph.aws4.group;grIcon=mxgraph.aws4.group_region;strokeColor=#B6BABF;fillColor=none;verticalAlign=top;align=left;spacingLeft=30;fontColor=#B6BABF;dashed=1;" vertex="1" parent="1">
          <mxGeometry x="890" y="370" width="160" height="40" as="geometry" />
        </mxCell>
        <mxCell id="QWPdR127JlsLXlF1BFBa-89" value="Third Party Provider C" style="sketch=0;outlineConnect=0;gradientColor=none;html=1;whiteSpace=wrap;fontSize=12;fontStyle=0;shape=mxgraph.aws4.group;grIcon=mxgraph.aws4.group_region;strokeColor=#B6BABF;fillColor=none;verticalAlign=top;align=left;spacingLeft=30;fontColor=#B6BABF;dashed=1;" vertex="1" parent="1">
          <mxGeometry x="890" y="420" width="160" height="40" as="geometry" />
        </mxCell>
        <mxCell id="QWPdR127JlsLXlF1BFBa-96" value="Amazon Fibre Optics Connections" style="text;html=1;align=center;verticalAlign=middle;whiteSpace=wrap;rounded=0;fillColor=none;" vertex="1" parent="1">
          <mxGeometry x="310" y="530" width="200" height="30" as="geometry" />
        </mxCell>
        <mxCell id="QWPdR127JlsLXlF1BFBa-98" style="edgeStyle=orthogonalEdgeStyle;rounded=0;orthogonalLoop=1;jettySize=auto;html=1;" edge="1" parent="1" source="QWPdR127JlsLXlF1BFBa-97" target="QWPdR127JlsLXlF1BFBa-51">
          <mxGeometry relative="1" as="geometry" />
        </mxCell>
        <mxCell id="QWPdR127JlsLXlF1BFBa-99" value="Your Internet Access&lt;div&gt;to your Provider&lt;/div&gt;" style="edgeLabel;html=1;align=center;verticalAlign=middle;resizable=0;points=[];fontStyle=1" vertex="1" connectable="0" parent="QWPdR127JlsLXlF1BFBa-98">
          <mxGeometry x="-0.6414" y="-1" relative="1" as="geometry">
            <mxPoint x="-1" y="-13" as="offset" />
          </mxGeometry>
        </mxCell>
        <mxCell id="QWPdR127JlsLXlF1BFBa-97" value="You As User" style="html=1;verticalLabelPosition=bottom;align=center;labelBackgroundColor=#ffffff;verticalAlign=top;strokeWidth=2;strokeColor=#0080F0;shadow=0;dashed=0;shape=mxgraph.ios7.icons.user;" vertex="1" parent="1">
          <mxGeometry x="522.01" y="430" width="30" height="30" as="geometry" />
        </mxCell>
        <mxCell id="QWPdR127JlsLXlF1BFBa-92" style="edgeStyle=orthogonalEdgeStyle;rounded=0;orthogonalLoop=1;jettySize=auto;html=1;strokeWidth=4;fillColor=#fa6800;strokeColor=#C73500;" edge="1" parent="1" source="QWPdR127JlsLXlF1BFBa-12" target="QWPdR127JlsLXlF1BFBa-83">
          <mxGeometry relative="1" as="geometry">
            <Array as="points">
              <mxPoint x="190" y="530" />
              <mxPoint x="620" y="530" />
              <mxPoint x="620" y="410" />
            </Array>
          </mxGeometry>
        </mxCell>
        <mxCell id="QWPdR127JlsLXlF1BFBa-102" value="AWS Public Network" style="points=[[0,0],[0.25,0],[0.5,0],[0.75,0],[1,0],[1,0.25],[1,0.5],[1,0.75],[1,1],[0.75,1],[0.5,1],[0.25,1],[0,1],[0,0.75],[0,0.5],[0,0.25]];outlineConnect=0;gradientColor=none;html=1;whiteSpace=wrap;fontSize=12;fontStyle=0;container=1;pointerEvents=0;collapsible=0;recursiveResize=0;shape=mxgraph.aws4.group;grIcon=mxgraph.aws4.group_security_group;grStroke=0;strokeColor=#7AA116;fillColor=#F2F6E8;verticalAlign=top;align=left;spacingLeft=30;fontColor=#248814;dashed=0;" vertex="1" parent="1">
          <mxGeometry x="530" y="629" width="200" height="120" as="geometry" />
        </mxCell>
        <mxCell id="QWPdR127JlsLXlF1BFBa-111" value="This is where public-facing AWS services and public subnets live. Provides internet access via endpoints and gateway" style="text;html=1;align=center;verticalAlign=middle;whiteSpace=wrap;rounded=0;" vertex="1" parent="QWPdR127JlsLXlF1BFBa-102">
          <mxGeometry x="17.5" y="40" width="165" height="55" as="geometry" />
        </mxCell>
        <mxCell id="QWPdR127JlsLXlF1BFBa-103" value="AWS Private Network" style="points=[[0,0],[0.25,0],[0.5,0],[0.75,0],[1,0],[1,0.25],[1,0.5],[1,0.75],[1,1],[0.75,1],[0.5,1],[0.25,1],[0,1],[0,0.75],[0,0.5],[0,0.25]];outlineConnect=0;gradientColor=none;html=1;whiteSpace=wrap;fontSize=12;fontStyle=0;container=1;pointerEvents=0;collapsible=0;recursiveResize=0;shape=mxgraph.aws4.group;grIcon=mxgraph.aws4.group_security_group;grStroke=0;strokeColor=#00A4A6;fillColor=#E6F6F7;verticalAlign=top;align=left;spacingLeft=30;fontColor=#147EBA;dashed=0;" vertex="1" parent="1">
          <mxGeometry x="730" y="629" width="200" height="120" as="geometry" />
        </mxCell>
        <mxCell id="QWPdR127JlsLXlF1BFBa-112" value="This is where VPCs and private subnets live. Connectivity requires gateways (NAT, VPN, DX, TGW)." style="text;html=1;align=center;verticalAlign=middle;whiteSpace=wrap;rounded=0;" vertex="1" parent="QWPdR127JlsLXlF1BFBa-103">
          <mxGeometry x="22.5" y="40" width="155" height="55" as="geometry" />
        </mxCell>
        <mxCell id="QWPdR127JlsLXlF1BFBa-117" value="Your VPCs are carved from the private network. Managed services typically run in the public network, and gateways provide connectivity to the internet or your on-premises network" style="text;html=1;align=center;verticalAlign=middle;whiteSpace=wrap;rounded=0;" vertex="1" parent="1">
          <mxGeometry x="555" y="749" width="350" height="70" as="geometry" />
        </mxCell>
        <mxCell id="QWPdR127JlsLXlF1BFBa-124" value="" style="html=1;shadow=0;dashed=0;align=center;verticalAlign=middle;shape=mxgraph.arrows2.bendArrow;dy=8.98;dx=52.3;notch=0;arrowHead=39.43;rounded=0;flipV=1;fillColor=#bac8d3;strokeColor=#23445d;" vertex="1" parent="1">
          <mxGeometry x="400" y="560" width="100" height="170" as="geometry" />
        </mxCell>
        <mxCell id="QWPdR127JlsLXlF1BFBa-125" value="The entire connected AWS Fleets Across all Regions forms the AWS Global Network" style="text;html=1;align=center;verticalAlign=middle;whiteSpace=wrap;rounded=0;fillColor=none;" vertex="1" parent="1">
          <mxGeometry x="160" y="629" width="240" height="30" as="geometry" />
        </mxCell>
        <mxCell id="QWPdR127JlsLXlF1BFBa-126" value="Geographic Governance Region A (e.g. NSW)" style="shape=mxgraph.ibm.box;prType=region;fontStyle=0;verticalAlign=top;align=left;spacingLeft=32;spacingTop=4;fillColor=none;rounded=0;whiteSpace=wrap;html=1;strokeColor=#919191;strokeWidth=2;dashed=0;container=1;spacing=-4;collapsible=0;expand=0;recursiveResize=0;" vertex="1" parent="1">
          <mxGeometry x="10" y="10" width="590" height="480" as="geometry" />
        </mxCell>
      </root>
    </mxGraphModel>
  </diagram>
</mxfile>
